<?xml version="1.0" standalone="no"?>
<!DOCTYPE svg PUBLIC "-//W3C//DTD SVG 20010904//EN"
 "http://www.w3.org/TR/2001/REC-SVG-20010904/DTD/svg10.dtd">
<svg version="1.0" xmlns="http://www.w3.org/2000/svg"
 width="2000.000000pt" height="907.000000pt" viewBox="0 0 2000.000000 907.000000"
 preserveAspectRatio="xMidYMid meet">
<metadata>
Created by potrace 1.16, written by Peter Selinger 2001-2019
</metadata>
<g transform="translate(0.000000,907.000000) scale(0.100000,-0.100000)"
fill="#000000" stroke="none">
<path d="M270 4535 l0 -4465 4465 0 4465 0 0 720 0 720 -95 0 -95 0 0 -630 0
-630 -4280 0 -4280 0 0 4285 0 4285 4280 0 4280 0 0 -655 0 -655 95 0 95 0 0
745 0 745 -4465 0 -4465 0 0 -4465z"/>
<path d="M4790 5640 l0 -780 105 0 105 0 0 655 c0 360 3 655 6 655 20 0 68
-49 88 -88 13 -26 90 -273 171 -549 l148 -503 103 0 c89 0 103 2 108 18 3 9
69 235 146 502 78 267 153 507 168 533 22 42 67 87 86 87 3 0 6 -295 6 -655
l0 -655 110 0 110 0 0 780 0 780 -59 0 c-81 0 -202 -24 -266 -54 -29 -13 -72
-43 -94 -66 -73 -75 -103 -156 -210 -558 -55 -205 -101 -377 -103 -383 -2 -5
-41 133 -87 308 -98 373 -125 461 -158 527 -34 68 -106 141 -167 171 -59 29
-183 55 -262 55 l-54 0 0 -780z"/>
<path d="M7690 5798 c0 -660 1 -672 48 -764 47 -93 160 -150 319 -161 l83 -6
0 90 c0 102 -1 103 -74 103 -67 0 -126 36 -156 95 l-25 50 -3 608 -3 607 -95
0 -94 0 0 -622z"/>
<path d="M13420 5739 l0 -680 -202 3 c-199 3 -204 4 -260 31 -99 49 -159 142
-173 273 -14 119 23 230 103 308 102 101 271 114 417 33 l45 -26 0 108 0 108
-57 22 c-312 119 -650 -61 -718 -384 -62 -294 90 -564 365 -650 46 -15 109
-19 373 -22 l317 -5 0 781 0 781 -105 0 -105 0 0 -681z"/>
<path d="M15002 5788 c3 -616 4 -635 25 -696 50 -148 146 -207 371 -226 l62
-6 0 100 0 100 -38 0 c-54 0 -130 25 -158 51 -52 49 -54 74 -54 716 l0 593
-105 0 -106 0 3 -632z"/>
<path d="M9183 6330 c-36 -22 -60 -82 -49 -125 4 -15 20 -40 36 -56 24 -24 37
-29 78 -29 61 0 97 26 112 80 29 107 -81 189 -177 130z"/>
<path d="M8373 5948 c-106 -106 -193 -197 -193 -201 0 -4 42 -7 94 -7 l95 0 3
-292 c3 -273 5 -297 25 -346 12 -29 34 -69 49 -89 59 -77 183 -129 336 -140
l88 -6 0 91 c0 104 7 96 -101 106 -59 5 -122 31 -151 63 -44 48 -48 80 -48
352 l0 260 148 3 147 3 3 93 3 92 -150 0 -150 0 -3 105 -3 105 -192 -192z"/>
<path d="M11745 5954 c-16 -3 -61 -17 -98 -31 -230 -86 -361 -279 -359 -528 1
-244 124 -423 352 -516 296 -120 631 57 715 376 19 75 19 201 0 283 -55 231
-261 404 -498 416 -45 2 -95 2 -112 0z m227 -223 c63 -31 121 -90 155 -159 26
-52 28 -66 28 -172 0 -107 -2 -119 -29 -174 -35 -72 -86 -125 -152 -157 -41
-20 -64 -24 -144 -24 -130 0 -171 14 -240 83 -78 79 -103 144 -103 272 0 112
22 182 79 248 74 87 140 113 274 108 63 -2 97 -8 132 -25z"/>
<path d="M6523 5558 c5 -419 11 -466 63 -541 36 -51 111 -102 177 -122 77 -24
208 -32 440 -27 l207 4 0 529 0 529 -100 0 -100 0 0 -441 0 -441 -147 7 c-82
3 -164 11 -183 17 -51 15 -97 53 -123 101 -21 41 -22 51 -25 405 l-3 362 -106
0 -105 0 5 -382z"/>
<path d="M13950 5841 l0 -101 203 0 c233 0 283 -9 339 -64 61 -59 68 -97 68
-374 l0 -244 -192 4 c-171 3 -197 5 -227 23 -72 43 -95 118 -55 186 32 54 84
74 194 74 94 0 106 -3 203 -53 4 -2 7 44 7 101 l0 106 -76 17 c-94 20 -254 15
-329 -12 -108 -37 -186 -110 -215 -198 -8 -24 -11 -72 -8 -130 5 -109 25 -154
94 -214 95 -84 193 -102 567 -102 l247 0 0 353 c0 373 -7 442 -49 526 -26 50
-77 102 -133 135 -81 47 -145 57 -400 63 l-238 6 0 -102z"/>
<path d="M9034 5843 c-21 -47 -40 -90 -42 -95 -2 -4 37 -8 87 -8 l91 0 0 -435
0 -435 95 0 95 0 0 530 0 530 -143 0 -144 0 -39 -87z"/>
<path d="M9670 5400 l0 -530 100 0 100 0 0 435 0 435 190 0 190 0 0 -435 0
-435 100 0 100 0 0 435 0 435 113 0 c61 0 129 -5 149 -10 51 -15 97 -56 122
-110 20 -43 21 -64 24 -397 l3 -353 95 0 95 0 -3 388 c-5 461 -7 472 -98 563
-38 38 -74 63 -115 80 l-60 24 -552 3 -553 3 0 -531z"/>
<path d="M4790 3620 l0 -780 105 0 105 0 0 350 0 350 335 0 335 0 0 -350 0
-350 105 0 105 0 0 780 0 780 -105 0 -105 0 0 -325 0 -325 -335 0 -335 0 0
325 0 325 -105 0 -105 0 0 -780z"/>
<path d="M11893 4389 c-162 -27 -302 -138 -387 -306 -54 -107 -56 -133 -56
-710 l0 -533 95 0 95 0 0 284 0 285 43 34 c97 79 164 97 365 97 l152 0 0 105
0 105 -122 0 c-202 -1 -333 -35 -397 -104 -14 -14 -29 -26 -34 -26 -13 0 -2
267 13 330 15 61 70 142 122 178 75 51 131 62 330 62 l178 0 0 -675 0 -675
110 0 110 0 0 780 0 780 -282 -1 c-156 -1 -306 -5 -335 -10z"/>
<path d="M15062 3753 c3 -644 3 -648 25 -703 30 -74 75 -125 135 -156 56 -28
174 -54 249 -54 l50 0 -3 98 -3 97 -66 6 c-84 7 -128 32 -156 89 l-23 44 0
613 0 613 -105 0 -106 0 3 -647z"/>
<path d="M8402 3748 c3 -634 3 -644 25 -696 12 -29 33 -68 46 -85 49 -64 171
-112 303 -118 l69 -4 3 91 3 91 -61 6 c-89 8 -144 38 -172 95 l-23 47 -3 608
-3 607 -95 0 -95 0 3 -642z"/>
<path d="M9790 3615 l0 -775 95 0 95 0 0 440 0 440 148 0 c81 0 163 -5 183
-10 56 -16 101 -51 129 -100 l25 -45 5 -360 5 -360 95 0 95 0 0 360 c0 405 -7
466 -59 543 -37 55 -109 106 -179 127 -69 20 -207 35 -339 35 l-108 0 0 240 0
240 -95 0 -95 0 0 -775z"/>
<path d="M9080 3915 l-195 -195 98 0 97 0 0 -265 c0 -157 5 -285 11 -317 39
-184 175 -278 419 -290 l65 -3 3 91 3 91 -73 7 c-99 9 -175 46 -203 101 -18
37 -20 61 -23 313 l-3 272 151 0 151 0 -3 93 -3 92 -147 3 -147 3 -3 99 -3
100 -195 -195z"/>
<path d="M6503 3915 c-181 -49 -316 -201 -359 -405 -22 -105 -14 -273 16 -355
46 -123 132 -221 240 -274 93 -46 143 -56 290 -55 113 1 145 4 195 23 60 22
165 85 165 99 0 4 -29 36 -65 72 l-64 64 -54 -28 c-194 -98 -425 -18 -498 173
-31 79 -30 213 0 294 46 118 131 194 240 216 81 16 160 1 204 -39 30 -27 32
-32 32 -99 0 -84 -18 -114 -89 -150 -39 -19 -68 -25 -162 -29 l-114 -5 0 -90
0 -90 118 6 c247 12 364 66 434 200 30 56 39 242 15 300 -37 88 -106 141 -222
172 -74 19 -251 19 -322 0z"/>
<path d="M18105 3916 c-85 -20 -147 -57 -216 -125 -111 -112 -161 -245 -162
-431 0 -173 48 -296 159 -399 104 -97 225 -141 394 -141 132 0 264 41 348 107
l22 18 -68 69 -69 68 -50 -26 c-71 -36 -165 -50 -238 -37 -85 16 -138 45 -195
107 -124 137 -119 375 11 518 64 70 129 99 224 99 130 1 195 -58 180 -163 -15
-113 -73 -149 -251 -157 l-114 -6 0 -90 0 -90 123 6 c187 10 294 45 369 124
56 58 81 123 86 224 9 181 -66 283 -238 323 -77 19 -244 19 -315 2z"/>
<path d="M7348 3904 c-5 -4 -8 -47 -8 -95 l0 -88 223 -3 c202 -3 226 -5 268
-24 108 -50 129 -122 129 -437 l0 -229 -197 4 c-170 3 -203 6 -237 22 -56 28
-78 69 -73 135 3 47 9 59 40 87 46 43 103 57 203 52 63 -3 90 -10 127 -30 l47
-27 0 99 0 99 -37 11 c-58 18 -231 24 -294 11 -195 -41 -300 -167 -286 -347 9
-119 60 -196 162 -248 86 -43 127 -48 438 -53 l298 -5 -3 388 c-3 379 -4 390
-26 446 -43 106 -140 187 -263 218 -52 14 -501 26 -511 14z"/>
<path d="M12800 3375 l0 -535 100 0 100 0 0 441 0 442 159 -5 c145 -4 164 -7
208 -29 52 -27 87 -71 103 -128 6 -21 10 -180 10 -378 l0 -343 105 0 105 0 0
338 c-1 473 -9 524 -99 613 -100 100 -185 119 -548 119 l-243 0 0 -535z"/>
<path d="M14000 3817 l0 -95 218 -4 c208 -4 219 -5 273 -30 31 -14 65 -38 75
-54 47 -69 48 -78 52 -348 l4 -259 -184 6 c-205 6 -241 14 -284 58 -24 26 -29
38 -29 83 0 102 68 151 211 151 69 0 89 -4 142 -31 l62 -31 0 107 0 107 -51
11 c-247 57 -479 -17 -553 -177 -27 -60 -29 -216 -3 -274 25 -54 84 -115 139
-143 92 -47 151 -54 461 -54 l287 0 0 373 c0 312 -3 382 -16 428 -34 115 -112
197 -231 241 -52 20 -83 22 -315 26 l-258 4 0 -95z"/>
<path d="M15623 3538 c4 -314 7 -383 21 -433 40 -138 93 -194 221 -235 58 -18
101 -23 253 -27 l182 -6 0 -32 c0 -43 -54 -148 -93 -181 -77 -65 -188 -94
-364 -94 l-103 0 0 -95 0 -95 153 0 c174 0 256 14 358 61 81 38 169 123 201
196 52 118 52 109 55 731 l4 582 -100 0 -101 0 0 -441 0 -442 -157 6 c-176 6
-226 19 -268 69 -50 59 -55 103 -55 470 l0 338 -106 0 -106 0 5 -372z"/>
<path d="M16970 3894 c-98 -26 -175 -84 -203 -154 -54 -130 -10 -277 106 -357
30 -20 108 -52 209 -84 215 -70 279 -119 246 -187 -33 -66 -107 -81 -395 -82
l-183 0 0 -96 0 -96 268 4 c295 5 329 11 418 71 35 23 57 48 77 88 25 49 29
67 29 141 -1 96 -14 136 -61 190 -39 45 -89 69 -275 129 -178 59 -220 81 -242
128 -15 31 -15 38 -3 60 8 14 30 34 49 45 32 19 55 21 263 25 l227 3 0 94 0
94 -237 -1 c-176 0 -252 -4 -293 -15z"/>
<path d="M19123 3900 c-127 -26 -216 -102 -255 -218 -21 -63 -22 -88 -26 -454
l-4 -388 106 0 106 0 0 358 c0 373 4 418 43 461 40 43 81 53 254 59 l163 5 0
93 0 94 -172 -1 c-95 -1 -192 -5 -215 -9z"/>
</g>
</svg>
